<svg xmlns="http://www.w3.org/2000/svg" viewBox="0 0 16 16" role="img" aria-hidden="true">
  <path fill="#5e5e5e" d="M2.464 4.5h1.473a.75.75 0 0 1 0 1.5H0V2.063a.75.75 0 0 1 1.5 0v1.27a8.25 8.25 0 1 1 10.539 12.554.75.75 0 0 1-.828-1.25A6.75 6.75 0 1 0 2.464 4.5Z"/>
  <path fill="#5e5e5e" d="M0 10.347V9.291c.697-.051 1.199-.18 1.507-.385.315-.205.51-.51.583-.913h1.32v7.81H1.903v-5.456H0Zm7.322 5.643c-.543 0-1.03-.099-1.463-.297a2.46 2.46 0 0 1-1.023-.869c-.25-.389-.382-.85-.396-1.386h1.518c.007.242.066.455.176.638.11.183.26.326.45.43.191.102.411.153.66.153.257 0 .48-.059.672-.176.198-.117.348-.282.45-.495.11-.213.166-.454.166-.726 0-.271-.055-.51-.165-.715a1.135 1.135 0 0 0-.451-.495 1.254 1.254 0 0 0-.671-.176c-.286 0-.536.07-.748.21a1.23 1.23 0 0 0-.462.516H4.56L5 7.993h4.642V9.39H6.207l-.211 2.134c.057-.108.136-.214.237-.319a1.77 1.77 0 0 1 .616-.407c.249-.103.52-.154.814-.154.454 0 .861.103 1.22.308.367.206.653.499.859.88.205.381.308.825.308 1.331 0 .528-.11 1.008-.33 1.441-.22.426-.54.763-.957 1.012-.411.25-.891.374-1.441.374Z"/>
</svg>
