<?xml version="1.0" encoding="UTF-8"?>
<svg xmlns="http://www.w3.org/2000/svg" width="201" height="69" viewBox="0 0 201 69" fill="none">
  <g clip-path="url(#clip0_6711_631)">
    <path d="M200.989 8.79521L192.128 8.81195L192.111 0L186.334 0.0111614L186.35 8.81753L177.484 8.83428L177.496 14.5099L186.362 14.4931L186.373 23.3051L192.151 23.2939L192.134 14.482L201 14.4708L200.989 8.79521Z" fill="#2B2B2B"></path>
    <path d="M147.697 23.7682L134.805 23.7905C133.395 23.3273 131.919 23.0594 130.302 23.065C122.716 23.0762 116.882 29.0252 116.893 36.7043C116.899 40.9066 118.853 44.3108 121.407 47.1068L136.141 63.1681L117.067 63.2016L117.078 69.0055L145.013 68.9609L145.002 63.6201L132.491 50.1594C139.072 48.8814 143.761 43.803 143.749 36.6597C143.749 34.059 143.07 31.6538 141.857 29.5889L147.697 29.5777L147.686 23.7738L147.697 23.7682ZM130.341 44.8856C126.309 44.8912 122.946 41.4926 122.94 36.6876C122.935 31.9495 126.354 28.6067 130.313 28.6011C134.271 28.5955 137.708 31.9272 137.713 36.6652C137.719 41.4702 134.367 44.8801 130.341 44.8856Z" fill="#2B2B2B"></path>
    <path d="M111.27 8.95087L104.824 8.96094L104.839 18.504L111.285 18.4939L111.27 8.95087Z" fill="#2B2B2B"></path>
    <path d="M111.293 23.8347L104.847 23.8447L104.898 55.9506L111.344 55.9405L111.293 23.8347Z" fill="#2B2B2B"></path>
    <path d="M88.6889 36.9444C84.4551 35.951 82.1025 34.6173 82.1025 32.2175C82.1025 30.0801 83.7757 28.4785 86.864 28.4729C89.8175 28.4729 91.9006 30.1973 92.4453 33.0714L99.0934 33.0602C98.0771 26.9214 93.1696 23.1266 87.0549 23.1377C80.1372 23.1489 75.7126 27.1614 75.7238 32.5022C75.7351 38.2447 79.6992 41.1746 86.0835 42.5642C90.918 43.6245 92.7373 45.0923 92.7373 47.5589C92.7373 49.6964 90.9292 51.2311 87.3693 51.2366C83.9442 51.2422 81.861 49.5122 81.0468 46.3758L74.4661 46.387C75.3476 53.1955 80.7268 56.7225 87.5097 56.7113C94.1579 56.7002 99.1889 52.6876 99.1777 47.146C99.1664 41.4034 95.2023 38.4735 88.6832 36.95L88.6889 36.9444Z" fill="#2B2B2B"></path>
    <path d="M55.0887 23.3161C46.1552 23.3329 40.0573 30.4148 40.0742 39.9578C40.091 49.7687 46.2114 56.633 55.5491 56.6163C61.327 56.6051 67.9021 53.5915 69.9684 46.3812L63.455 46.3924C62.2478 48.8647 59.7716 50.9351 55.6727 50.9463C51.2424 50.9519 47.4074 48.3568 46.6606 42.352L70.0302 42.3129C70.165 41.5093 70.2267 40.7782 70.2267 39.9076C70.2099 30.1637 64.0895 23.2994 55.0887 23.3106V23.3161ZM46.7167 37.2791C47.3119 31.4696 51.0684 28.8634 55.1617 28.8578C59.6593 28.8522 63.0227 31.983 63.5673 37.2512L46.7111 37.2791H46.7167Z" fill="#2B2B2B"></path>
    <path d="M12.2912 9.10209L0 9.12441L0.0786099 56.1141L12.3698 56.0917C26.806 56.0694 36.8007 46.7719 36.7726 32.5578C36.7501 18.3438 26.7274 9.07977 12.2912 9.10209ZM12.3586 50.1483L6.8503 50.1594L6.79415 15.0511L12.3025 15.04C22.7127 15.0232 29.7089 21.8205 29.7258 32.5634C29.7426 43.2449 22.7688 50.1259 12.3642 50.1483H12.3586Z" fill="#2B2B2B"></path>
    <path d="M152.531 23.7573L152.582 55.8632L159.028 55.852L158.989 29.5557L171.072 29.5334L171.117 55.8297L177.563 55.8241L177.512 23.7183L152.531 23.7573Z" fill="#2B2B2B"></path>
  </g>
  <defs>
    <clipPath id="clip0_6711_631">
      <rect width="201" height="69" fill="white"></rect>
    </clipPath>
  </defs>
</svg>
