<svg xmlns="http://www.w3.org/2000/svg" viewBox="0 0 16 16" role="img" aria-hidden="true">
  <path fill="#5e5e5e" d="M13.536 4.488h-1.473a.75.75 0 1 0 0 1.5H16V2.051a.75.75 0 0 0-1.5 0v1.27A8.25 8.25 0 1 0 3.962 15.876a.75.75 0 0 0 .826-1.252 6.75 6.75 0 1 1 8.747-10.136Z"/>
  <path fill="#5e5e5e" d="M11.81 15.681c.433.198.921.297 1.464.297.55 0 1.03-.124 1.44-.374.419-.25.738-.586.958-1.012.22-.432.33-.913.33-1.44 0-.507-.103-.95-.308-1.332a2.156 2.156 0 0 0-.858-.88 2.416 2.416 0 0 0-1.221-.308c-.294 0-.565.052-.814.154a1.77 1.77 0 0 0-.616.407c-.1.105-.18.211-.237.319l.211-2.134h3.436V7.981h-4.642l-.44 4.61h1.474a1.24 1.24 0 0 1 .462-.518c.212-.14.462-.209.748-.209.256 0 .48.059.67.176.199.118.349.283.452.495.11.206.165.444.165.715 0 .272-.055.514-.165.726a1.135 1.135 0 0 1-.451.495 1.25 1.25 0 0 1-.671.176c-.25 0-.47-.051-.66-.154a1.155 1.155 0 0 1-.451-.429 1.295 1.295 0 0 1-.176-.638h-1.518c.014.536.146.998.396 1.386a2.46 2.46 0 0 0 1.023.87Zm-5.858-5.346V9.28c.697-.051 1.199-.18 1.507-.385.315-.205.51-.51.583-.913h1.32v7.81H7.855v-5.456H5.952Z"/>
</svg>
