<?xml version="1.0" encoding="UTF-8"?>
<svg xmlns="http://www.w3.org/2000/svg" width="24" height="18" viewBox="0 0 24 18" fill="none">
  <path d="M1 9.7788V8.2212C1 5.0367 1 3.4439 1.9955 2.4198C2.9921 1.3946 4.5607 1.3506 7.6968 1.2615C9.1818 1.2197 10.6998 1.19 12 1.19C13.3002 1.19 14.8171 1.2197 16.3032 1.2615C19.4393 1.3506 21.0079 1.3946 22.0034 2.4198C22.9989 3.445 23 5.0378 23 8.2212V9.7777C23 12.9633 23 14.555 22.0045 15.5802C21.0079 16.6043 19.4404 16.6494 16.3032 16.7374C14.8182 16.7803 13.3002 16.81 12 16.81C10.6998 16.81 9.1829 16.7803 7.6968 16.7374C4.5607 16.6494 2.9921 16.6054 1.9955 15.5802C0.9989 14.555 1 12.9622 1 9.7788Z" fill="white" stroke="#2B2B2B" stroke-width="2"></path>
  <path d="M14.2 9.00011L10.35 11.2001V6.80011L14.2 9.00011Z" fill="#2B2B2B" stroke="#2B2B2B" stroke-width="2" stroke-linecap="round" stroke-linejoin="round"></path>
</svg>
