<?xml version="1.0" encoding="UTF-8"?>
<svg xmlns="http://www.w3.org/2000/svg" width="22" height="22" viewBox="0 0 22 22" fill="none">
  <path d="M11 21C16.5228 21 21 16.5228 21 11C21 5.47715 16.5228 1 11 1C5.47715 1 1 5.47715 1 11C1 16.5228 5.47715 21 11 21Z" fill="white" stroke="#2B2B2B" stroke-width="2" stroke-linecap="round" stroke-linejoin="round"></path>
  <path d="M6.5 11.069C7.6 10.699 8.776 10.5 10 10.5C12.024 10.5 13.92 11.047 15.549 12M17 9C15.15 7.738 12.912 7 10.5 7C8.903 7 7.382 7.324 6 7.908M14.129 15C12.1244 13.9697 9.80734 13.7254 7.632 14.315" stroke="#2B2B2B" stroke-width="2" stroke-linecap="round" stroke-linejoin="round"></path>
</svg>
