<?xml version="1.0" encoding="UTF-8"?>
<svg xmlns="http://www.w3.org/2000/svg" width="86" height="20" viewBox="0 0 86 20" fill="none">
  <path d="M4.59836 14.143C3.70569 14.143 3.07736 13.831 2.71336 13.207C2.34936 12.5743 2.16736 11.7423 2.16736 10.711C2.16736 9.68833 2.34936 8.86067 2.71336 8.228C3.07736 7.59533 3.70569 7.279 4.59836 7.279C5.10103 7.279 5.54736 7.42633 5.93736 7.721C6.33603 8.007 6.64369 8.41433 6.86036 8.943C7.07703 9.463 7.18536 10.0523 7.18536 10.711C7.18536 11.3783 7.07703 11.972 6.86036 12.492C6.64369 13.012 6.34036 13.4193 5.95036 13.714C5.56036 14 5.10969 14.143 4.59836 14.143ZM4.18236 13.194C4.81503 13.194 5.28303 12.96 5.58636 12.492C5.88969 12.0153 6.04136 11.4217 6.04136 10.711C6.04136 10.0003 5.88969 9.411 5.58636 8.943C5.28303 8.475 4.81503 8.241 4.18236 8.241C3.54969 8.241 3.07736 8.475 2.76536 8.943C2.46203 9.411 2.31036 10.0003 2.31036 10.711C2.31036 11.4217 2.46203 12.0153 2.76536 12.492C3.07736 12.96 3.54969 13.194 4.18236 13.194ZM1.32236 4.822H2.45336V8.943L2.29736 10.763L2.44036 12.375L2.25836 14H1.32236V4.822ZM7.77361 15.716H8.61861C8.95661 15.716 9.20361 15.651 9.35961 15.521C9.51561 15.391 9.64561 15.183 9.74961 14.897C9.76694 14.845 9.78428 14.7973 9.80161 14.754L10.2826 13.519L10.4906 13.116L12.5706 7.552H13.7666L10.9196 14.793C10.7203 15.2783 10.5339 15.6467 10.3606 15.898C10.1959 16.158 9.98361 16.3487 9.72361 16.47C9.47228 16.5913 9.13861 16.652 8.72261 16.652H7.77361V15.716ZM7.70861 7.552H8.89161L10.8416 13.155L10.1266 14.052L7.70861 7.552Z" fill="#B5B5B5"></path>
  <g clip-path="url(#clip0_8215_7144)">
    <path fill-rule="evenodd" clip-rule="evenodd" d="M30.16 0C24.552 0 20 4.464 20 9.964C20 15.476 24.552 19.929 30.16 19.929C35.78 19.929 40.32 15.464 40.32 9.964C40.334 4.464 35.78 0 30.16 0ZM34.822 14.381C34.7322 14.5229 34.5901 14.6237 34.4265 14.6615C34.2629 14.6993 34.0909 14.6711 33.948 14.583C31.556 13.155 28.558 12.833 25.013 13.619C24.673 13.69 24.333 13.489 24.261 13.155C24.2431 13.0755 24.2411 12.9931 24.2552 12.9128C24.2694 12.8325 24.2993 12.7558 24.3433 12.6872C24.3873 12.6185 24.4445 12.5593 24.5116 12.5129C24.5786 12.4665 24.6542 12.4339 24.734 12.417C28.606 11.547 31.933 11.917 34.604 13.524C34.919 13.702 35.016 14.084 34.822 14.381ZM36.072 11.667C35.9588 11.8432 35.7818 11.9688 35.5782 12.0177C35.3745 12.0665 35.1598 12.0347 34.979 11.929C32.249 10.274 28.085 9.798 24.856 10.762C24.431 10.881 23.994 10.655 23.872 10.25C23.8422 10.1517 23.8324 10.0483 23.8433 9.94614C23.8541 9.84395 23.8854 9.74498 23.9352 9.65509C23.985 9.5652 24.0523 9.48621 24.1332 9.42282C24.214 9.35942 24.3068 9.31289 24.406 9.286C28.096 8.19 32.686 8.714 35.829 10.607C36.181 10.821 36.303 11.297 36.072 11.667ZM36.182 8.833C32.903 6.93 27.501 6.75 24.37 7.68C24.13 7.75254 23.8711 7.72829 23.6487 7.61243C23.4263 7.49657 23.2581 7.29829 23.18 7.06C23.023 6.572 23.314 6.049 23.812 5.894C27.405 4.822 33.377 5.037 37.14 7.227C37.2462 7.28813 37.3391 7.36986 37.4133 7.4674C37.4875 7.56494 37.5415 7.67631 37.572 7.79499C37.6026 7.91367 37.6091 8.03726 37.5913 8.15849C37.5734 8.27973 37.5315 8.39618 37.468 8.501C37.4059 8.60797 37.3232 8.70155 37.2247 8.7763C37.1262 8.85106 37.0138 8.90551 36.8941 8.93649C36.7744 8.96746 36.6497 8.97436 36.5273 8.95676C36.4049 8.93917 36.2872 8.89744 36.181 8.834L36.182 8.833ZM47.652 9.202C45.892 8.798 45.589 8.5 45.589 7.892C45.589 7.322 46.135 6.94 46.949 6.94C47.737 6.94 48.526 7.238 49.352 7.833C49.376 7.857 49.412 7.857 49.437 7.857C49.473 7.857 49.497 7.833 49.51 7.81L50.372 6.619C50.3805 6.60718 50.3867 6.5938 50.39 6.57961C50.3934 6.56542 50.3939 6.55071 50.3916 6.53632C50.3893 6.52193 50.3842 6.50813 50.3765 6.49572C50.3688 6.48331 50.3588 6.47253 50.347 6.464C49.364 5.69 48.259 5.321 46.973 5.321C45.079 5.321 43.756 6.441 43.756 8.036C43.756 9.75 44.896 10.357 46.876 10.821C48.551 11.202 48.842 11.524 48.842 12.083C48.842 12.714 48.272 13.107 47.349 13.107C46.329 13.107 45.492 12.774 44.557 11.977C44.533 11.952 44.497 11.952 44.472 11.952C44.436 11.952 44.412 11.964 44.399 11.988L43.44 13.108C43.404 13.155 43.404 13.226 43.452 13.262C44.521 14.205 45.8995 14.7219 47.325 14.714C49.364 14.714 50.687 13.619 50.687 11.929C50.663 10.5 49.801 9.714 47.652 9.202ZM55.288 7.5C54.402 7.5 53.673 7.845 53.078 8.548V7.762C53.0779 7.74782 53.0749 7.7338 53.0694 7.72075C53.0638 7.70769 53.0558 7.69586 53.0457 7.68592C53.0355 7.67599 53.0236 7.66814 53.0104 7.66284C52.9973 7.65753 52.9832 7.65487 52.969 7.655H51.403C51.343 7.655 51.294 7.702 51.294 7.762V16.524C51.294 16.584 51.343 16.631 51.404 16.631H52.969C53.029 16.631 53.079 16.583 53.079 16.524V13.762C53.673 14.417 54.402 14.738 55.288 14.738C56.927 14.738 58.602 13.5 58.602 11.119C58.602 8.75 56.927 7.5 55.288 7.5ZM56.768 11.119C56.768 12.333 56.004 13.167 54.924 13.167C53.844 13.167 53.042 12.286 53.042 11.119C53.042 9.952 53.855 9.071 54.924 9.071C55.992 9.071 56.769 9.929 56.769 11.119H56.768ZM62.862 7.5C60.75 7.5 59.087 9.107 59.087 11.143C59.087 13.167 60.738 14.75 62.838 14.75C64.962 14.75 66.625 13.155 66.625 11.119C66.625 9.095 64.975 7.5 62.862 7.5ZM62.862 13.19C61.734 13.19 60.884 12.298 60.884 11.131C60.884 9.952 61.709 9.095 62.838 9.095C63.968 9.095 64.828 9.988 64.828 11.167C64.828 12.333 64.003 13.19 62.862 13.19ZM71.153 7.643H69.43V5.917C69.4299 5.90273 69.4269 5.88863 69.4213 5.87551C69.4157 5.86239 69.4075 5.85051 69.3973 5.84057C69.3871 5.83062 69.375 5.82279 69.3617 5.81755C69.3484 5.8123 69.3343 5.80974 69.32 5.81H67.754C67.694 5.81 67.645 5.857 67.645 5.917V7.655H66.893C66.832 7.655 66.783 7.702 66.783 7.762V9.083C66.783 9.143 66.832 9.19 66.893 9.19H67.645V12.619C67.645 14 68.349 14.702 69.733 14.702C70.291 14.702 70.765 14.583 71.202 14.345C71.238 14.321 71.262 14.285 71.262 14.25V12.988C71.262 12.952 71.238 12.917 71.214 12.893C71.1981 12.8812 71.1788 12.8747 71.159 12.8747C71.1392 12.8747 71.1199 12.8812 71.104 12.893C70.819 13.0392 70.5023 13.1128 70.182 13.107C69.672 13.107 69.454 12.881 69.454 12.381V9.202H71.178C71.238 9.202 71.287 9.155 71.287 9.095V7.762C71.263 7.702 71.214 7.642 71.153 7.642V7.643ZM77.174 7.655V7.44C77.174 6.81 77.417 6.536 77.964 6.536C78.291 6.536 78.558 6.596 78.849 6.69C78.886 6.702 78.922 6.69 78.959 6.679C78.983 6.655 79.007 6.619 79.007 6.583V5.286C79.0061 5.26142 78.9974 5.23776 78.9821 5.21851C78.9668 5.19925 78.9457 5.1854 78.922 5.179C78.4972 5.05192 78.0553 4.99153 77.612 5C76.155 5 75.39 5.798 75.39 7.321V7.643H74.637C74.577 7.643 74.516 7.69 74.516 7.75V9.083C74.516 9.143 74.564 9.19 74.637 9.19H75.39V14.476C75.39 14.536 75.438 14.583 75.499 14.583H77.065C77.125 14.583 77.175 14.536 77.175 14.476V9.202H78.643L80.889 14.488C80.634 15.048 80.379 15.155 80.039 15.155C79.759 15.155 79.469 15.071 79.177 14.917C79.153 14.905 79.117 14.905 79.08 14.905C79.056 14.917 79.02 14.94 79.007 14.965L78.473 16.107C78.449 16.167 78.473 16.227 78.522 16.25C79.034 16.5338 79.6117 16.6776 80.197 16.667C81.362 16.667 81.993 16.131 82.564 14.714L85.295 7.81C85.3021 7.79242 85.3048 7.77334 85.3027 7.75448C85.3006 7.73562 85.2938 7.71758 85.283 7.702C85.2722 7.68657 85.2576 7.67416 85.2406 7.66594C85.2236 7.65771 85.2048 7.65395 85.186 7.655H83.547C83.499 7.655 83.45 7.69 83.437 7.726L81.763 12.416L79.966 7.726C79.954 7.679 79.906 7.655 79.856 7.655H77.174ZM73.69 7.643H72.124C72.064 7.643 72.015 7.69 72.015 7.75V14.476C72.015 14.536 72.064 14.583 72.125 14.583H73.69C73.751 14.583 73.8 14.536 73.8 14.476V7.762C73.8 7.702 73.751 7.642 73.69 7.642V7.643ZM72.901 4.583C72.282 4.583 71.772 5.083 71.772 5.69C71.772 6.298 72.282 6.798 72.902 6.798C73.52 6.798 74.03 6.298 74.03 5.69C74.03 5.083 73.533 4.583 72.901 4.583Z" fill="#B5B5B5"></path>
  </g>
  <defs>
    <clipPath id="clip0_8215_7144">
      <rect width="66" height="20" fill="white" transform="translate(20)"></rect>
    </clipPath>
  </defs>
</svg>
