<?xml version="1.0" encoding="UTF-8"?>
<svg xmlns="http://www.w3.org/2000/svg" width="87" height="20" viewBox="0 0 87 20" fill="none">
  <path d="M4.59836 14.143C3.70569 14.143 3.07736 13.831 2.71336 13.207C2.34936 12.5743 2.16736 11.7423 2.16736 10.711C2.16736 9.68833 2.34936 8.86067 2.71336 8.228C3.07736 7.59533 3.70569 7.279 4.59836 7.279C5.10103 7.279 5.54736 7.42633 5.93736 7.721C6.33603 8.007 6.64369 8.41433 6.86036 8.943C7.07703 9.463 7.18536 10.0523 7.18536 10.711C7.18536 11.3783 7.07703 11.972 6.86036 12.492C6.64369 13.012 6.34036 13.4193 5.95036 13.714C5.56036 14 5.10969 14.143 4.59836 14.143ZM4.18236 13.194C4.81503 13.194 5.28303 12.96 5.58636 12.492C5.88969 12.0153 6.04136 11.4217 6.04136 10.711C6.04136 10.0003 5.88969 9.411 5.58636 8.943C5.28303 8.475 4.81503 8.241 4.18236 8.241C3.54969 8.241 3.07736 8.475 2.76536 8.943C2.46203 9.411 2.31036 10.0003 2.31036 10.711C2.31036 11.4217 2.46203 12.0153 2.76536 12.492C3.07736 12.96 3.54969 13.194 4.18236 13.194ZM1.32236 4.822H2.45336V8.943L2.29736 10.763L2.44036 12.375L2.25836 14H1.32236V4.822ZM7.77361 15.716H8.61861C8.95661 15.716 9.20361 15.651 9.35961 15.521C9.51561 15.391 9.64561 15.183 9.74961 14.897C9.76694 14.845 9.78428 14.7973 9.80161 14.754L10.2826 13.519L10.4906 13.116L12.5706 7.552H13.7666L10.9196 14.793C10.7203 15.2783 10.5339 15.6467 10.3606 15.898C10.1959 16.158 9.98361 16.3487 9.72361 16.47C9.47228 16.5913 9.13861 16.652 8.72261 16.652H7.77361V15.716ZM7.70861 7.552H8.89161L10.8416 13.155L10.1266 14.052L7.70861 7.552Z" fill="#B5B5B5"></path>
  <g clip-path="url(#clip0_8729_3328)">
    <path d="M41.6098 4.34243C41.3673 3.41992 40.6551 2.69497 39.749 2.44802C38.1064 2 31.5241 2 31.5241 2C31.5241 2 24.9418 2 23.301 2.44802C22.3948 2.69497 21.6827 3.41992 21.4401 4.34243C21 6.01282 21 9.5 21 9.5C21 9.5 21 12.9872 21.4401 14.6576C21.6827 15.5801 22.3948 16.305 23.301 16.552C24.9418 17 31.5241 17 31.5241 17C31.5241 17 38.1064 17 39.7472 16.552C40.6534 16.305 41.3655 15.5801 41.6081 14.6576C42.0482 12.9872 42.0482 9.5 42.0482 9.5C42.0482 9.5 42.0482 6.01282 41.6081 4.34243H41.6098ZM29.4189 12.7138V6.28622L34.8872 9.5L29.4189 12.7138Z" fill="#B5B5B5"></path>
    <path d="M51.5536 15.6456C51.1377 15.3599 50.8415 14.9154 50.6647 14.3122C50.4897 13.7089 50.4014 12.9081 50.4014 11.9062V10.5428C50.4014 9.53205 50.5019 8.7189 50.7028 8.10684C50.9038 7.49477 51.2174 7.04675 51.6437 6.76629C52.0699 6.48584 52.6296 6.34473 53.3226 6.34473C54.0157 6.34473 54.5511 6.4876 54.9634 6.77335C55.3741 7.0591 55.6755 7.50712 55.8661 8.11389C56.0567 8.72243 56.152 9.53205 56.152 10.5428V11.9062C56.152 12.9081 56.0585 13.7124 55.8731 14.3192C55.6877 14.9277 55.3862 15.3722 54.9704 15.6527C54.5545 15.9332 53.9897 16.0743 53.2776 16.0743C52.5654 16.0743 51.9711 15.9314 51.5536 15.6456ZM53.8857 14.1746C54.0001 13.8677 54.059 13.3685 54.059 12.6735V9.74724C54.059 9.07344 54.0018 8.57956 53.8857 8.26912C53.7696 7.95691 53.5669 7.80169 53.2758 7.80169C52.9847 7.80169 52.7959 7.95691 52.6815 8.26912C52.5654 8.58132 52.5083 9.07344 52.5083 9.74724V12.6735C52.5083 13.3685 52.5637 13.8694 52.6746 14.1746C52.7855 14.4815 52.9847 14.6349 53.2758 14.6349C53.5669 14.6349 53.7696 14.4815 53.8857 14.1746Z" fill="#B5B5B5"></path>
    <path d="M83.5243 11.929V12.4035C83.5243 13.0068 83.5416 13.4583 83.5763 13.76C83.6109 14.0616 83.6837 14.2803 83.7946 14.4196C83.9055 14.5572 84.0753 14.626 84.3057 14.626C84.6159 14.626 84.8307 14.5025 84.9451 14.2574C85.0612 14.0122 85.1235 13.603 85.1339 13.0315L86.9255 13.1391C86.9359 13.2202 86.9411 13.3331 86.9411 13.476C86.9411 14.3438 86.7072 14.9929 86.2411 15.4215C85.775 15.8501 85.1149 16.0653 84.2624 16.0653C83.2384 16.0653 82.5211 15.739 82.1105 15.0846C81.6981 14.4302 81.4937 13.4195 81.4937 12.0508V10.4104C81.4937 9.00101 81.7068 7.97091 82.133 7.3218C82.5592 6.6727 83.2887 6.34814 84.3231 6.34814C85.0352 6.34814 85.5827 6.48044 85.9639 6.74678C86.3451 7.01313 86.6136 7.42587 86.7696 7.98855C86.9255 8.55123 87.0035 9.32733 87.0035 10.3186V11.9273H83.526L83.5243 11.929ZM83.7877 7.9762C83.682 8.10849 83.6127 8.32545 83.5763 8.62707C83.5416 8.92869 83.5243 9.38554 83.5243 9.99937V10.6732H85.0438V9.99937C85.0438 9.39612 85.0231 8.93928 84.9832 8.62707C84.9434 8.31487 84.8706 8.09615 84.7649 7.96738C84.6592 7.84038 84.4963 7.77512 84.2763 7.77512C84.0562 7.77512 83.8916 7.84215 83.7877 7.97444V7.9762Z" fill="#B5B5B5"></path>
    <path d="M46.4942 11.7543L44.1309 3.06543H46.1927L47.0209 7.00416C47.2323 7.9743 47.3865 8.80155 47.487 9.48594H47.5476C47.6169 8.99558 47.7729 8.17361 48.0137 7.01828L48.8714 3.06543H50.9332L48.5404 11.7543V15.9223H46.4925V11.7543H46.4942Z" fill="#B5B5B5"></path>
    <path d="M62.8591 6.52832V15.9227H61.2339L61.0537 14.7727H61.0086C60.5668 15.6405 59.9049 16.0744 59.0213 16.0744C58.4097 16.0744 57.9574 15.8698 57.6664 15.4624C57.3753 15.0531 57.2297 14.4146 57.2297 13.5468V6.52832H59.3072V13.4233C59.3072 13.8431 59.3522 14.1412 59.4423 14.3194C59.5324 14.4975 59.6832 14.5875 59.8945 14.5875C60.0747 14.5875 60.248 14.531 60.4143 14.4181C60.5807 14.3052 60.702 14.1624 60.7834 13.9895V6.52832H62.8608H62.8591Z" fill="#B5B5B5"></path>
    <path d="M73.5132 6.52832V15.9227H71.8879L71.7077 14.7727H71.6627C71.2209 15.6405 70.559 16.0744 69.6753 16.0744C69.0637 16.0744 68.6115 15.8698 68.3204 15.4624C68.0293 15.0531 67.8838 14.4146 67.8838 13.5468V6.52832H69.9612V13.4233C69.9612 13.8431 70.0063 14.1412 70.0964 14.3194C70.1865 14.4975 70.3372 14.5875 70.5486 14.5875C70.7288 14.5875 70.9021 14.531 71.0684 14.4181C71.2347 14.3052 71.356 14.1624 71.4375 13.9895V6.52832H73.5149H73.5132Z" fill="#B5B5B5"></path>
    <path d="M68.5023 4.76581H66.4404V15.9223H64.408V4.76581H62.3462V3.06543H68.5023V4.76581Z" fill="#B5B5B5"></path>
    <path d="M80.3883 8.02915C80.2618 7.43649 80.0591 7.00786 79.7784 6.74152C79.4977 6.47517 79.1113 6.34288 78.6193 6.34288C78.2381 6.34288 77.8812 6.45224 77.5502 6.67273C77.2193 6.89321 76.9629 7.18072 76.7827 7.53879H76.7671V2.58936H74.7659V15.9207H76.4812L76.6926 15.0317H76.7376C76.8988 15.3492 77.1396 15.5979 77.4601 15.7831C77.7807 15.9666 78.1376 16.0583 78.5292 16.0583C79.2309 16.0583 79.749 15.7285 80.0799 15.0705C80.4108 14.4109 80.5772 13.3825 80.5772 11.982V10.495C80.5772 9.44378 80.5148 8.62005 80.3883 8.02738V8.02915ZM78.4841 11.8621C78.4841 12.5464 78.4564 13.0827 78.401 13.4707C78.3455 13.8588 78.2537 14.1357 78.122 14.298C77.9921 14.462 77.8153 14.5431 77.5953 14.5431C77.4238 14.5431 77.2661 14.5026 77.1205 14.4197C76.975 14.3385 76.8572 14.2151 76.7671 14.0528V8.72059C76.8364 8.46483 76.9577 8.25669 77.1292 8.09265C77.299 7.92861 77.4861 7.84747 77.6854 7.84747C77.8968 7.84747 78.0596 7.93214 78.174 8.0997C78.2901 8.26904 78.3698 8.55126 78.4148 8.94989C78.4599 9.34853 78.4824 9.91473 78.4824 10.6503V11.8603L78.4841 11.8621Z" fill="#B5B5B5"></path>
  </g>
  <defs>
    <clipPath id="clip0_8729_3328">
      <rect width="66" height="15" fill="white" transform="translate(21 2)"></rect>
    </clipPath>
  </defs>
</svg>
